<?xml version="1.0" encoding="UTF-8"?>
<svg width="146px" height="42px" viewBox="0 0 146 42" version="1.1" xmlns="http://www.w3.org/2000/svg" xmlns:xlink="http://www.w3.org/1999/xlink">
    <!-- Generator: sketchtool 50.2 (55047) - http://www.bohemiancoding.com/sketch -->
    <title>F769DEDD-F2E9-421E-8DF0-CEBFEBBEEE4B</title>
    <desc>Created with sketchtool.</desc>
    <defs></defs>
    <g id="Page-1" stroke="none" stroke-width="1" fill="none" fill-rule="evenodd">
        <g id="PowerCar-empty-state" transform="translate(-376.000000, -16.000000)">
            <g id="Group-5" transform="translate(376.000000, 16.000000)">
                <g id="POWER-CAR">
                    <g transform="translate(-0.608696, 0.000000)" id="Shape">
                        <path d="M25.1659364,9.92409132 L14.7867129,20.5624691 C14.4064158,20.9522616 14.6757929,21.6186647 15.2135567,21.6186647 L19.1889909,21.6186647 L15.8373401,31.4340263 C15.625333,32.0549681 16.3801264,32.5411212 16.8339929,32.0759223 L27.2132871,21.4374721 C27.5935842,21.0476796 27.3242071,20.3812764 26.7864433,20.3812764 L22.8108676,20.3812764 L26.1625184,10.5659149 C26.3745963,9.94497306 25.6198736,9.4588925 25.1659364,9.92409132 Z" fill="#FF8A24" fill-rule="nonzero"></path>
                        <path d="M10.2292189,10.3967729 C11.6735512,8.84002648 13.4419382,7.58752643 15.4161961,6.74548896 C16.8786483,6.12177569 18.4659982,5.72293306 20.1122377,5.59208584 C20.7834822,5.53873225 21.3043478,4.97884689 21.3043478,4.29777032 L21.3043478,1.29884038 C21.3043478,0.552053796 20.6826095,-0.0454736672 19.9459231,0.00272459027 C17.596244,0.156402566 15.3590861,0.706140924 13.2890517,1.58598416 C10.5268218,2.76009043 8.06963673,4.52305013 6.07005954,6.718894 C2.81996803,10.28802 0.780430041,15.0017113 0.608695652,20.1946031 L6.12069813,20.6956522 C6.17392528,16.7131996 7.72422654,13.0967755 10.2292189,10.3967729 Z" fill="#B6E462" fill-rule="nonzero"></path>
                        <path d="M37.1413369,6.92390145 L38.6137315,5.45389409 C39.0547361,5.0136044 38.7423578,4.26086957 38.1187496,4.26086957 L31.4086864,4.26086957 C31.022069,4.26086957 30.7087063,4.57380611 30.7087063,4.95971478 L30.7087063,11.6589811 C30.7087063,12.2815783 31.4626635,12.5934501 31.9036682,12.1531604 L33.175084,10.883724 C35.5391676,13.5669031 36.9821946,17.0787375 37.0084449,20.9269316 C37.0662776,29.4173318 30.1411261,36.3937448 21.6366102,36.4088961 C13.118477,36.4241293 6.1221193,29.5346113 6.1221193,21.0338099 C6.1221193,20.9630491 6.12113492,20.7591256 6.1221193,20.6886105 L0.608695652,20.1773555 C0.595816609,20.5603977 0.604969385,21.0890919 0.613008533,21.4771299 C0.848358682,32.8581596 10.2318487,42.013335 21.6339031,41.9999854 C33.2202017,41.9863902 42.6086957,32.6047637 42.6086957,21.0338099 C42.6086957,15.5997212 40.5379589,10.6486736 37.1413369,6.92390145 Z" fill="#58AB23" fill-rule="nonzero"></path>
                    </g>
                </g>
                <text id="POWERCAR" font-family="AvenirNext-Bold, Avenir Next" font-size="16" font-weight="bold">
                    <tspan x="52" y="29" fill="#58AB23">POWER</tspan>
                    <tspan x="112.576" y="29" fill="#FF8A24">CAR</tspan>
                </text>
            </g>
        </g>
    </g>
</svg>
